#!OML:ASF F:\VICON\USERDATA\INSTALL\rory3\rory3.ASF
:FULLY-SPECIFIED
:DEGREES
89
root 0.5942643045026456 17.478324078939234 32.70175771974325 0.4611921060620672 -3.2038791063878946 -1.0479507517551296
lfemur -20.807649681733487 7.4200724324267195 -17.66436072192479
ltibia 93.76387062574403
lfoot 0.7222312482979121 -8.404094870807494
ltoes -9.10273030638193
rfemur -17.14252324717263 6.1687108039403995 31.85012243422578
rtibia 51.95521899121236
rfoot -0.5980279086595974 -6.19352365337841
rtoes 2.1960001731630525
lowerback 15.655401474872221 0.7227987421341023 2.3192699010603786
upperback -0.5577626620826563 1.515764174295897 2.2444570897632463
thorax -9.325260896105032 1.0101857856873195 0.41185999555279545
lowerneck -20.168063573311162 -3.7119770493786715 -2.3224980707576273
upperneck 12.682780984843678 -5.292080837499855 4.986847157923915
head 7.304387842322164 -2.5084490944941096 1.3419090204927406
lclavicle 2.9801515526439752e-15 1.1900897868484632e-16
lhumerus -49.95126608629225 -11.638586238803198 96.41283030985336
lradius 112.61580413294078
lwrist 34.31029082053226
lhand -20.76962159169459 2.7139360258457055
lfingers 7.125019999999999
lthumb 5.543018586710327 32.28308360631051
rclavicle 2.9801381671163078e-15 1.1900166246856291e-16
rhumerus -48.091599791941896 8.867017644115474 -96.06613114341289
rradius 109.96920751150178
rwrist -15.388328024106146
rhand -15.721559529227708 38.43837152535466
rfingers 7.125019999999999
rthumb 10.546603470624625 8.43021515524145
90
root 0.5875995362626631 17.46109669024297 32.46832836936258 0.5531714701004549 -3.081026180232204 -1.310513254923586
lfemur -26.085848059722665 6.845847916129441 -18.730614983312453
ltibia 95.44512130234637
lfoot 1.0328653899373779 -8.937314676103021
ltoes -9.68090644793626
rfemur -12.636286263702775 6.753229937795135 32.805972942816574
rtibia 52.612086450098445
rfoot 0.09235495768204594 -6.315522911010816
rtoes 2.509144204266261
lowerback 15.6801515942651 0.8733627574034234 2.7542954015744003
upperback -0.5733859685331734 1.9289092127108587 2.305594356514992
thorax -9.494097410048713 0.9710888700266206 -0.12560947899579172
lowerneck -20.105534258277306 -3.8274178203441354 -2.3305767936281874
upperneck 12.606401871986938 -5.402902054865979 5.024590357585787
head 7.312180501293425 -2.5294372129518927 1.3533429906865044
lclavicle 2.9801515526439752e-15 1.1900897868484632e-16
lhumerus -50.51535705882348 -11.298105708782838 96.43155391790154
lradius 113.08479627480075
lwrist 34.390117903623974
lhand -20.636875018210876 2.8073215852965716
lfingers 7.125019999999999
lthumb 5.586750083163702 32.395695058084286
rclavicle 2.9801381671163078e-15 1.1900166246856291e-16
rhumerus -46.6994966517661 9.386165111075423 -96.0900408968606
rradius 110.03469489505198
rwrist -15.373754145672187
rhand -15.704967391088228 38.4661466074664
rfingers 7.125019999999999
rthumb 10.533798111588593 8.395361175678858
91
root 0.5851355429547874 17.467693079233598 32.54181391148233 0.6863627092873246 -2.8799190900849085 -1.5122867075720907
lfemur -25.60914089457206 7.093439181411461 -17.76762225360588
ltibia 95.73708749726508
lfoot -0.6525207639724198 -9.389572924875678
ltoes -10.083515863703475
rfemur -11.822642660907334 6.128126461589151 32.42545727759972
rtibia 53.17127268736872
rfoot 0.19907942421489988 -6.279362606385259
rtoes 2.48880218704734
lowerback 15.616988102302866 0.998211919265119 3.145366491680475
upperback -0.6094542938104237 2.3634819551718476 2.3297703765925153
thorax -9.439379665197773 1.1427669558171372 -0.12652794278957136
lowerneck -19.982321587191223 -3.909551742929234 -2.347604939050507
upperneck 12.504472419589174 -5.555237233443896 5.065957236704309
head 7.297753207502889 -2.5666688576453858 1.352465031267406
lclavicle 2.9801515526439752e-15 1.1900897868484632e-16
lhumerus -51.06756406480124 -10.928418861244836 96.46203485860049
lradius 113.28434511140517
lwrist 34.3861475244511
lhand -20.658195846186157 2.689675438467172
lfingers 7.125019999999999
lthumb 5.554681622402094 32.46347078890349
rclavicle 2.9801381671163078e-15 1.1900166246856291e-16
rhumerus -45.35768243459603 9.964823832343924 -96.10336418245609
rradius 110.01784832759077
rwrist -15.390931111458377
rhand -15.753146574941509 38.48237684025125
rfingers 7.125019999999999
rthumb 10.561995162672105 8.424284994291789
92
root 0.5832577152898115 17.477981243338224 31.97880719775294 0.7874000387489919 -2.742223170604928 -1.734403219068542
lfemur -27.694560657613064 6.684686748591083 -18.31383715459219
ltibia 94.78758547138091
lfoot -1.747837645536969 -9.120538609262633
ltoes -10.363494383381996
rfemur -11.954392159150196 5.427646911816193 31.79240110819205
rtibia 53.497200230992675
rfoot -0.22562182076780957 -6.192429794293275
rtoes 1.6451319351774463
lowerback 15.489050111529318 1.1061622851983643 3.481009085397231
upperback -0.6533039851318367 2.7363802639965096 2.3180406314001436
thorax -9.42611739506154 1.2098972448012484 -0.2801704717557834
lowerneck -19.884553356921217 -3.9954620940500374 -2.360339549860805
upperneck 12.470296675523137 -5.714274229672744 5.129660390760273
head 7.288652446083339 -2.607853855612446 1.344162935583223
lclavicle 2.9801515526439752e-15 1.1900897868484632e-16
lhumerus -51.29576417260147 -10.652842336658228 96.53507763886711
lradius 112.84536678499671
lwrist 34.26068256449974
lhand -20.567066680699618 2.7135001645649615
lfingers 7.125019999999999
lthumb 5.557545247570654 32.568150790567735
rclavicle 2.9801381671163078e-15 1.1900166246856291e-16
rhumerus -44.061685821796324 10.590265831061611 -96.07712438757491
rradius 109.95689919345251
rwrist -15.396382787316139
rhand -15.736892613380213 38.50499343761142
rfingers 7.125019999999999
rthumb 10.579877366949194 8.433784695774031
